<?xml version="1.0" encoding="utf-8"?>
<!-- Generator: Adobe Illustrator 16.0.0, SVG Export Plug-In . SVG Version: 6.00 Build 0)  -->
<!DOCTYPE svg PUBLIC "-//W3C//DTD SVG 1.1//EN" "http://www.w3.org/Graphics/SVG/1.1/DTD/svg11.dtd">
<svg version="1.1" id="Layer_1" xmlns="http://www.w3.org/2000/svg" xmlns:xlink="http://www.w3.org/1999/xlink" x="0px" y="0px"
	 width="396px" height="396px" viewBox="0 0 396 396" enable-background="new 0 0 396 396" xml:space="preserve">
<g>
	<path fill="#FFFFFF" d="M33.023,253.201c-0.182,0.071-0.363,0.143-0.545,0.214c-0.411-0.428-0.998-0.787-1.199-1.297
		c-0.458-1.165-0.775-2.393-1.066-3.615c-0.772-3.246-1.607-6.483-2.222-9.761c-0.894-4.771-1.838-9.551-2.352-14.371
		c-0.558-5.231-0.678-10.51-0.934-15.77c-0.295-6.068,0.2-12.113,0.65-18.157c0.041-0.551,0.256-1.086,0.35-1.636
		c0.174-1.015,0.36-2.03,0.468-3.053c0.407-3.864,0.782-7.73,1.176-11.595c0.024-0.237,0.1-0.469,0.16-0.7
		c0.53-2.039,1.125-4.064,1.578-6.12c0.426-1.934,0.651-3.912,1.067-5.849c0.211-0.982,0.705-1.9,0.971-2.875
		c0.666-2.444,1.205-4.925,1.926-7.352c0.699-2.352,1.652-4.628,2.331-6.985c1.161-4.025,2.574-7.948,4.439-11.695
		c2.696-5.415,5.412-10.821,8.726-15.899c1.288-1.974,2.447-4.033,3.763-5.987c1.924-2.857,3.859-5.714,5.936-8.461
		c1.884-2.492,3.928-4.867,5.965-7.239c2.627-3.057,5.322-6.056,7.979-9.087c0.918-1.047,2.052-1.729,3.355-1.002
		c2.021,1.127,3.987,0.911,5.948,0.085c2.92-1.23,5.832-2.496,8.679-3.886c3.323-1.622,6.528-3.489,9.867-5.077
		c4.192-1.994,8.512-3.721,12.696-5.729c4.748-2.278,9.41-4.734,14.104-7.125c4.339-2.21,8.762-4.222,13.428-5.653
		c1.194-0.366,2.496-0.526,3.571-1.108c3.621-1.96,7.718-2.354,11.526-3.685c1.947-0.68,3.979-1.131,5.988-1.622
		c2.071-0.505,4.146-1.029,6.247-1.368c2.813-0.454,5.653-0.735,8.481-1.094c0.238-0.03,0.496-0.032,0.706-0.13
		c2.044-0.954,4.222-0.651,6.365-0.723c1.595-0.053,3.306,0.112,4.746-0.416c1.416-0.52,2.777-0.621,4.189-0.636
		c3.919-0.042,7.84-0.019,11.76-0.011c0.558,0.001,1.143-0.033,1.67,0.113c3.866,1.073,7.811,1.459,11.807,1.499
		c0.793,0.007,1.592,0.154,2.377,0.295c2.817,0.508,5.631,1.033,8.443,1.569c1.551,0.296,3.102,0.598,4.64,0.95
		c4.023,0.921,8.125,1.614,12.031,2.899c2.676,0.881,5.641,0.933,8.047,2.626c4.3,0.477,7.939,2.835,11.887,4.292
		c4.437,1.637,8.362,4.433,12.796,6.198c2.635,1.049,5.085,2.566,7.721,3.718c5.054,2.207,9.896,4.897,14.845,7.351
		c2.511,1.245,5.069,2.397,7.594,3.614c2.264,1.091,4.432,2.46,6.796,3.236c1.579,0.518,3.521,0.589,5.136,0.189
		c2.742-0.679,3.059-0.79,4.75,1.434c0.433,0.569,0.942,1.081,1.354,1.663c1.218,1.724,3.195,2.672,4.351,4.518
		c1.12,1.788,2.684,3.29,3.956,4.99c2.91,3.888,5.805,7.789,8.619,11.746c1.83,2.574,3.512,5.253,5.251,7.892
		c2.549,3.869,4.617,8.008,6.741,12.113c0.867,1.675,1.432,3.508,2.319,5.169c1.893,3.544,2.874,7.42,4.232,11.157
		c0.691,1.9,1.219,3.861,1.788,5.804c0.755,2.58,1.509,5.16,2.204,7.755c0.469,1.751,0.812,3.535,1.253,5.294
		c0.535,2.139,1.254,4.242,1.641,6.405c0.531,2.973,0.824,5.988,1.22,8.984c0.052,0.396,0.114,0.791,0.167,1.187
		c0.584,4.417,1.487,8.821,1.677,13.256c0.301,7.025,0.146,14.071,0.131,21.108c-0.003,1.346-0.213,2.695-0.389,4.035
		c-0.259,1.971-0.613,3.929-0.853,5.901c-0.393,3.224-0.724,6.456-1.088,9.683c-0.018,0.155-0.115,0.298-0.155,0.452
		c-0.581,2.228-1.119,4.467-1.744,6.682c-0.794,2.815-1.652,5.613-2.495,8.414c-0.229,0.759-0.506,1.503-0.761,2.254
		c-0.202-0.025-0.403-0.051-0.605-0.077c-0.141-0.908-0.361-1.813-0.405-2.726c-0.081-1.676,0-3.361-0.089-5.037
		c-0.254-4.758-1.7-9.394-1.474-14.205c0.019-0.394-0.062-0.796-0.129-1.189c-0.25-1.475-0.565-2.94-0.762-4.421
		c-0.34-2.564-1.26-4.727-3.704-5.989c-0.487-0.252-1.061-0.575-1.3-1.022c-0.482-0.902-1.235-0.87-2.034-0.904
		c-4.07-0.176-4.067-0.179-5.032-4.004c-0.056-0.223-0.191-0.427-0.259-0.574c-1.748-0.464-3.473-0.773-5.073-1.401
		c-1.043-0.409-2.005-1.178-2.823-1.973c-1.058-1.028-1.916-2.258-2.895-3.371c-3.318-3.775-7.781-5.459-12.485-6.506
		c-1.467-0.327-3.121,0.127-4.679,0.307c-0.52,0.06-0.993,0.477-1.516,0.563c-3.945,0.653-6.919,2.969-9.611,5.687
		c-1.379,1.393-2.54,3.002-3.799,4.514c-1.599,1.92-3.235,3.811-4.784,5.771c-1.471,1.863-2.83,3.814-4.275,5.699
		c-2.522,3.288-5.082,6.547-7.605,9.833c-1.042,1.356-2.068,2.726-3.038,4.133c-1.103,1.599-2.116,3.26-3.2,4.871
		c-3.238,4.813-6.571,9.564-9.715,14.437c-2.476,3.836-4.746,7.807-7.073,11.738c-2.242,3.786-4.459,7.586-6.645,11.404
		c-0.703,1.228-1.219,2.563-1.916,3.795c-1.389,2.456-2.897,4.847-4.248,7.323c-0.602,1.103-0.862,2.388-1.42,3.52
		c-0.795,1.615-1.717,3.167-2.593,4.742c-0.765,1.374-1.657,2.691-2.286,4.124c-1.482,3.375-2.618,6.917-4.303,10.181
		c-2.36,4.572-4.095,9.385-6.143,14.072c-1.952,4.465-3.409,9.106-5.391,13.548c-0.509,1.14-0.908,2.332-1.307,3.518
		c-0.55,1.638-1.224,3.261-1.536,4.946c-0.458,2.486-0.773,5.016-0.894,7.539c-0.067,1.403,0.342,2.839,0.619,4.243
		c0.137,0.692,0.429,1.361,0.705,2.018c2.006,4.755,6.039,7.277,10.431,9.365c1.565,0.744,3.157,1.592,4.828,1.917
		c2.629,0.512,4.796,1.344,6.096,3.932c0.406,0.809,1.518,1.36,2.423,1.775c0.419,0.191,1.131-0.188,1.688-0.377
		c0.962-0.328,1.72-0.076,2.3,0.723c0.411,0.567,0.835,1.135,1.162,1.751c1.6,3.023,4.537,3.782,7.505,4.165
		c3.231,0.417,6.075-1.307,8.988-2.361c2.62-0.948,5.065-2.367,7.628-3.486c3.415-1.491,6.587-3.402,9.729-5.378
		c1.521-0.957,3.09-1.846,4.566-2.868c1.915-1.326,3.752-2.763,5.633-4.138c0.906-0.662,1.749-1.498,3.255-1.412
		c-0.154,1.147-0.268,2.161-0.431,3.166c-0.189,1.168-0.526,2.32-0.61,3.493c-0.108,1.512,0.02,3.04-0.042,4.558
		c-0.072,1.791,0.766,3.165,1.829,4.478c1.564,1.934,3.78,2.695,6.003,3.53c1.598,0.601,2.977,0.533,4.566-0.121
		c2.544-1.048,4.122-3.102,5.719-5.083c3.034-3.766,5.881-7.682,8.794-11.544c1.376-1.824,2.777-3.633,4.072-5.514
		c2.118-3.076,4.17-6.198,6.229-9.314c2.564-3.88,5.163-7.739,7.641-11.675c1.544-2.454,2.688-5.18,4.379-7.518
		c2.266-3.133,3.923-6.589,5.812-9.917c2.445-4.31,4.703-8.727,6.969-13.136c1.654-3.22,3.252-6.472,4.76-9.762
		c1.277-2.787,2.053-5.859,3.658-8.426c2.001-3.2,2.888-6.804,4.313-10.182c2.302-5.456,3.875-11.225,5.658-16.892
		c1.275-4.05,2.538-8.115,3.537-12.239c1.062-4.383,1.851-8.836,2.683-13.272c1.389-7.398,1.477-14.92,1.906-22.398
		c0.186-3.241-0.349-6.523-0.554-9.788c-0.35-5.574-1.019-11.121-1.021-16.728c-0.001-3.485-0.616-6.968-0.919-10.455
		c-0.111-1.272,0.201-2.677-0.237-3.806c-0.903-2.329-0.86-4.692-0.8-7.068c0.05-1.987-0.565-3.771-1.393-5.482
		c-0.598-1.238-1.357-2.255-0.553-3.791c0.386-0.738,0.129-1.9-0.053-2.828c-0.271-1.378-0.672-2.741-1.128-4.072
		c-1.176-3.434-2.422-6.843-3.622-10.269c-0.836-2.387-1.645-4.783-2.46-7.177c-0.66-1.938-1.213-3.918-1.991-5.807
		c-1.517-3.688-3.166-7.321-4.744-10.984c-2.461-5.711-5.402-11.16-8.602-16.497c-2.834-4.728-6.072-9.163-9.257-13.639
		c-2.181-3.064-4.58-5.974-6.887-8.95c-1.212-1.563-2.328-3.221-3.675-4.659c-4.017-4.289-8.125-8.492-12.204-12.723
		c-0.66-0.685-1.316-1.382-2.042-1.993c-2.296-1.933-4.629-3.821-6.939-5.737c-2.064-1.713-4.119-3.438-6.176-5.16
		c-1.844-1.543-3.513-3.39-5.567-4.564c-2.92-1.667-5.626-3.642-8.44-5.447c-3.318-2.127-6.683-4.142-10.162-5.981
		c-1.093-0.578-2.088-1.347-3.198-1.883c-4.389-2.12-8.878-4.042-13.193-6.3c-5.51-2.883-11.328-4.909-17.225-6.763
		c-1.346-0.423-2.751-0.651-4.104-1.055c-3.166-0.945-6.286-2.06-9.482-2.878c-2.213-0.566-4.525-0.749-6.79-1.117
		c-0.308-0.05-0.598-0.193-0.901-0.277c-0.971-0.267-1.935-0.572-2.92-0.774c-0.937-0.192-1.898-0.262-2.846-0.403
		c-3.857-0.575-7.71-1.176-11.571-1.721c-0.785-0.111-1.598-0.012-2.397-0.025c-0.479-0.008-0.959-0.028-1.436-0.073
		c-3.086-0.291-6.167-0.752-9.258-0.85c-4.635-0.146-9.279-0.076-13.918-0.024c-3.194,0.035-6.39,0.139-9.579,0.316
		c-2.054,0.114-4.098,0.417-6.146,0.635c-3.715,0.396-7.431,0.791-11.146,1.192c-0.237,0.026-0.465,0.116-0.701,0.16
		c-1.402,0.266-2.802,0.545-4.208,0.783c-0.628,0.106-1.292,0.046-1.902,0.203c-2.21,0.567-4.391,1.25-6.608,1.787
		c-3.437,0.833-7.007,1.269-10.305,2.467c-2.595,0.943-5.312,1.461-7.876,2.604c-1.984,0.884-4.256,1.339-6.33,2.16
		c-4.426,1.751-8.882,3.459-13.177,5.5c-4.41,2.095-8.697,4.47-12.935,6.9c-3.275,1.878-6.434,3.972-9.572,6.077
		c-5.266,3.531-10.62,6.938-15.412,11.136C74.564,54.63,71.729,56.71,69.076,59c-5.26,4.539-9.894,9.717-14.729,14.686
		c-1.372,1.409-2.553,3.006-3.81,4.525c-1.957,2.366-4.002,4.667-5.835,7.126c-2.949,3.957-5.765,8.013-8.618,12.041
		c-1.134,1.601-2.256,3.212-3.312,4.865c-0.719,1.126-1.294,2.344-1.969,3.5c-0.791,1.354-1.738,2.628-2.414,4.035
		c-2.146,4.464-4.237,8.955-6.268,13.472c-1.101,2.447-2.087,4.95-3.03,7.463c-0.774,2.065-1.213,4.274-2.142,6.259
		c-2.149,4.593-3.826,9.312-4.862,14.282c-0.351,1.687-1.238,3.255-1.688,4.929c-0.467,1.734-1.574,3.482-0.69,5.32
		c0.467,0.972,0.128,1.507-0.225,2.36c-0.903,2.189-1.833,4.452-2.167,6.77c-0.452,3.135-0.458,6.315-0.943,9.488
		c-0.744,4.864-0.841,9.833-1.111,14.763c-0.149,2.712-0.053,5.437-0.139,8.154c-0.043,1.353-0.221,2.704-0.388,4.049
		c-0.136,1.098-0.491,2.185-0.501,3.28c-0.053,5.519-0.04,11.04-0.01,16.559c0.005,0.948,0.175,1.898,0.317,2.841
		c0.212,1.403,0.53,2.792,0.691,4.2c0.378,3.299,0.688,6.607,1.031,9.911c0.016,0.155,0.059,0.32,0.134,0.455
		c1.279,2.309,0.872,5.026,1.881,7.452c0.774,1.86,0.804,4.02,1.255,6.027c0.328,1.457,0.742,2.901,1.225,4.315
		c1.119,3.273,2.345,6.511,3.446,9.791c0.702,2.092,1.225,4.244,1.896,6.348c0.261,0.815,1.028,1.578,1.013,2.354
		c-0.053,2.621,1.828,4.47,2.502,6.818c0.837,2.917,2.549,5.575,3.804,8.38c1.443,3.226,2.695,6.541,4.222,9.724
		c1.594,3.324,3.403,6.545,5.145,9.797c0.786,1.467,1.84,2.823,2.42,4.362c1.855,4.916,5.081,9.055,7.518,13.635
		c0.93,1.747,1.808,3.53,2.861,5.202c2.365,3.753,4.807,7.457,7.248,11.161c3.982,6.042,7.976,12.076,12.268,17.907
		c0.888,1.207,1.628,2.524,2.542,3.711c1.825,2.37,3.865,4.588,5.545,7.053c1.432,2.102,3.367,3.688,4.981,5.59
		c0.195,0.23,0.464,0.447,0.743,0.549c2.388,0.873,4.772,1.859,7.234,0.161c0.566-0.391,1.216-0.663,1.844-0.955
		c3.358-1.562,4.987-4.312,4.714-7.934c-0.108-1.433-0.097-2.878-0.275-4.3c-0.134-1.078-0.415-2.151-0.753-3.186
		c-0.274-0.838-0.69-1.615,0.152-2.612c0.549,0.218,1.171,0.348,1.66,0.676c2.89,1.938,5.713,3.979,8.629,5.879
		c3.813,2.483,7.564,5.033,11.758,6.941c2.377,1.082,4.728,2.321,7.124,3.402c2.201,0.993,4.598,1.551,6.816,2.512
		c3.764,1.631,9.538-0.388,11.465-4.106c0.737-1.423,1.697-2.607,3.766-2.057c1.658,0.441,3.132-0.12,3.886-1.92
		c0.739-1.766,2.416-2.783,3.999-3.125c2.274-0.49,4.352-1.281,6.481-2.15c3.245-1.324,6.05-3.241,8.295-5.826
		c1.252-1.441,2.278-3.141,2.862-5.121c1.005-3.408,0.356-6.831,0.542-10.239c0.012-0.226-0.096-0.465-0.178-0.688
		c-0.952-2.594-1.926-5.179-2.858-7.779c-0.534-1.49-0.883-3.056-1.521-4.496c-1.502-3.387-2.763-6.885-4.106-10.317
		c-1.307-3.339-2.939-6.536-4.158-9.909c-0.71-1.964-1.713-3.822-2.598-5.722c-1.266-2.716-2.541-5.427-3.822-8.135
		c-0.134-0.283-0.371-0.518-0.506-0.801c-1.758-3.669-3.459-7.366-5.273-11.007c-1.156-2.321-2.481-4.557-3.715-6.838
		c-1.31-2.422-2.539-4.889-3.916-7.271c-2.044-3.537-4.198-7.011-6.285-10.523c-1.524-2.565-2.935-5.201-4.541-7.713
		c-3.468-5.425-6.991-10.815-10.567-16.169c-1.769-2.649-3.708-5.185-5.564-7.776c-1.195-1.669-2.475-3.287-3.548-5.032
		c-1.856-3.018-3.85-5.913-6.323-8.465c-0.488-0.503-0.837-1.14-1.263-1.706c-0.893-1.191-1.761-2.404-2.699-3.56
		c-2.276-2.804-4.645-5.536-6.87-8.379c-3.65-4.664-8.533-7.2-14.168-8.57c-2.895-0.704-5.545,0.544-8.056,1.357
		c-4.46,1.442-7.859,4.699-10.776,8.366c-1.512,1.901-3.56,2.837-5.892,3.2c-1.824,0.284-2.314,0.694-2.576,2.419
		c-0.274,1.802-0.979,2.618-2.76,2.53c-1.954-0.096-3.463,0.569-5.052,1.629c-2.827,1.886-4.223,4.379-4.2,7.74
		c0.006,0.875,0.192,1.903-0.187,2.597c-1.11,2.033-0.847,4.184-0.938,6.322c-0.054,1.271-0.146,2.544-0.295,3.808
		c-0.176,1.493-0.553,2.971-0.631,4.466C33.111,247.144,33.097,250.173,33.023,253.201z"/>
	<path fill-rule="evenodd" clip-rule="evenodd" fill="#FFFFFF" d="M33.023,253.201c0.073-3.027,0.087-6.057,0.245-9.08
		c0.078-1.496,0.455-2.973,0.631-4.466c0.149-1.264,0.241-2.536,0.295-3.808c0.091-2.138-0.173-4.289,0.938-6.322
		c0.379-0.694,0.192-1.722,0.187-2.597c-0.023-3.36,1.373-5.854,4.2-7.74c1.589-1.06,3.098-1.725,5.052-1.629
		c1.78,0.088,2.486-0.728,2.76-2.53c0.262-1.725,0.752-2.135,2.576-2.419c2.333-0.363,4.38-1.299,5.892-3.2
		c2.917-3.667,6.316-6.924,10.776-8.366c2.511-0.812,5.161-2.061,8.056-1.357c5.635,1.371,10.518,3.906,14.168,8.57
		c2.225,2.843,4.594,5.575,6.87,8.379c0.938,1.156,1.806,2.369,2.699,3.56c0.425,0.566,0.774,1.202,1.263,1.706
		c2.473,2.552,4.466,5.448,6.323,8.465c1.073,1.745,2.353,3.363,3.548,5.032c1.856,2.591,3.795,5.127,5.564,7.776
		c3.576,5.354,7.1,10.745,10.567,16.169c1.606,2.512,3.017,5.148,4.541,7.713c2.087,3.513,4.241,6.986,6.285,10.523
		c1.377,2.382,2.606,4.85,3.916,7.271c1.234,2.282,2.56,4.518,3.715,6.838c1.814,3.641,3.516,7.338,5.273,11.007
		c0.136,0.283,0.372,0.518,0.506,0.801c1.281,2.708,2.556,5.419,3.822,8.135c0.885,1.899,1.887,3.758,2.598,5.722
		c1.219,3.373,2.852,6.57,4.158,9.909c1.343,3.433,2.604,6.931,4.106,10.317c0.639,1.44,0.987,3.006,1.521,4.496
		c0.932,2.601,1.907,5.186,2.858,7.779c0.082,0.223,0.189,0.462,0.178,0.688c-0.185,3.408,0.464,6.831-0.542,10.239
		c-0.583,1.98-1.61,3.68-2.862,5.121c-2.245,2.585-5.05,4.502-8.295,5.826c-2.13,0.869-4.208,1.66-6.481,2.15
		c-1.583,0.342-3.26,1.359-3.999,3.125c-0.753,1.8-2.228,2.361-3.886,1.92c-2.069-0.551-3.029,0.634-3.766,2.057
		c-1.927,3.719-7.701,5.737-11.465,4.106c-2.219-0.961-4.615-1.519-6.816-2.512c-2.396-1.081-4.746-2.32-7.124-3.402
		c-4.194-1.908-7.945-4.458-11.758-6.941c-2.916-1.899-5.739-3.94-8.629-5.879c-0.489-0.328-1.11-0.458-1.66-0.676
		c-0.843,0.997-0.427,1.774-0.152,2.612c0.338,1.034,0.619,2.107,0.753,3.186c0.178,1.422,0.167,2.867,0.275,4.3
		c0.272,3.622-1.356,6.371-4.714,7.934c-0.628,0.292-1.278,0.564-1.844,0.955c-2.461,1.698-4.846,0.712-7.234-0.161
		c-0.279-0.102-0.548-0.318-0.743-0.549c-1.614-1.901-3.549-3.488-4.981-5.59c-1.68-2.465-3.72-4.683-5.545-7.053
		c-0.913-1.187-1.653-2.504-2.542-3.711c-4.292-5.831-8.285-11.865-12.268-17.907c-2.441-3.704-4.883-7.408-7.248-11.161
		c-1.053-1.672-1.931-3.455-2.861-5.202c-2.437-4.58-5.663-8.719-7.518-13.635c-0.581-1.539-1.635-2.896-2.42-4.362
		c-1.742-3.252-3.551-6.473-5.145-9.797c-1.527-3.184-2.779-6.499-4.222-9.724c-1.255-2.806-2.967-5.464-3.804-8.38
		c-0.674-2.348-2.555-4.197-2.502-6.818c0.016-0.775-0.752-1.538-1.013-2.354c-0.671-2.104-1.193-4.256-1.896-6.348
		c-1.101-3.28-2.327-6.517-3.446-9.791c-0.483-1.414-0.897-2.858-1.225-4.315c-0.451-2.007-0.481-4.167-1.255-6.027
		c-1.01-2.426-0.602-5.143-1.881-7.452c-0.075-0.135-0.118-0.3-0.134-0.455c-0.343-3.304-0.653-6.611-1.031-9.911
		c-0.161-1.408-0.479-2.797-0.691-4.2c-0.142-0.942-0.312-1.893-0.317-2.841c-0.03-5.52-0.043-11.04,0.01-16.559
		c0.01-1.095,0.365-2.182,0.501-3.28c0.167-1.345,0.345-2.696,0.388-4.049c0.086-2.717-0.01-5.442,0.139-8.154
		c0.27-4.93,0.367-9.898,1.111-14.763c0.485-3.172,0.491-6.353,0.943-9.488c0.334-2.317,1.264-4.581,2.167-6.77
		c0.353-0.854,0.691-1.389,0.225-2.36c-0.884-1.838,0.224-3.586,0.69-5.32c0.45-1.674,1.337-3.242,1.688-4.929
		c1.036-4.97,2.712-9.689,4.862-14.282c0.929-1.985,1.368-4.194,2.142-6.259c0.942-2.514,1.929-5.016,3.03-7.463
		c2.031-4.517,4.123-9.008,6.268-13.472c0.676-1.407,1.623-2.682,2.414-4.035c0.675-1.156,1.25-2.374,1.969-3.5
		c1.056-1.652,2.178-3.264,3.312-4.865c2.853-4.028,5.668-8.084,8.618-12.041c1.833-2.459,3.878-4.76,5.835-7.126
		c1.257-1.52,2.438-3.116,3.81-4.525c4.836-4.969,9.47-10.146,14.729-14.686c2.653-2.29,5.489-4.369,8.125-6.678
		c4.792-4.199,10.146-7.605,15.412-11.136c3.138-2.105,6.296-4.198,9.572-6.077c4.238-2.431,8.525-4.806,12.935-6.9
		c4.294-2.041,8.751-3.748,13.177-5.5c2.073-0.821,4.346-1.275,6.33-2.16c2.564-1.143,5.282-1.662,7.876-2.604
		c3.298-1.199,6.869-1.635,10.305-2.467c2.217-0.537,4.398-1.22,6.608-1.787c0.611-0.157,1.274-0.097,1.902-0.203
		c1.406-0.238,2.806-0.517,4.208-0.783c0.235-0.044,0.464-0.134,0.701-0.16c3.715-0.401,7.431-0.797,11.146-1.192
		c2.048-0.219,4.092-0.521,6.146-0.635c3.189-0.177,6.385-0.281,9.579-0.316c4.64-0.051,9.283-0.121,13.918,0.024
		c3.092,0.098,6.172,0.559,9.258,0.85c0.477,0.045,0.957,0.065,1.436,0.073c0.799,0.013,1.613-0.085,2.397,0.025
		c3.861,0.545,7.714,1.146,11.571,1.721c0.948,0.141,1.91,0.211,2.846,0.403c0.985,0.202,1.949,0.507,2.92,0.774
		c0.303,0.083,0.594,0.227,0.901,0.277c2.265,0.368,4.576,0.55,6.79,1.117c3.196,0.818,6.316,1.933,9.482,2.878
		c1.353,0.404,2.758,0.632,4.104,1.055c5.897,1.854,11.715,3.88,17.225,6.763c4.315,2.258,8.805,4.181,13.193,6.3
		c1.11,0.536,2.105,1.305,3.198,1.883c3.479,1.839,6.844,3.854,10.162,5.981c2.814,1.805,5.521,3.779,8.44,5.447
		c2.054,1.174,3.724,3.021,5.567,4.564c2.057,1.722,4.111,3.447,6.176,5.16c2.31,1.916,4.643,3.805,6.939,5.737
		c0.726,0.611,1.381,1.309,2.042,1.993c4.079,4.23,8.187,8.434,12.204,12.723c1.348,1.438,2.463,3.096,3.675,4.659
		c2.307,2.976,4.706,5.885,6.887,8.95c3.185,4.476,6.423,8.911,9.257,13.639c3.199,5.336,6.14,10.785,8.602,16.497
		c1.578,3.663,3.227,7.296,4.744,10.984c0.777,1.889,1.331,3.87,1.991,5.807c0.815,2.394,1.624,4.791,2.46,7.177
		c1.2,3.426,2.445,6.835,3.622,10.269c0.456,1.332,0.857,2.694,1.128,4.072c0.182,0.928,0.439,2.09,0.053,2.828
		c-0.805,1.536-0.045,2.553,0.553,3.791c0.828,1.712,1.443,3.495,1.393,5.482c-0.06,2.376-0.104,4.739,0.8,7.068
		c0.438,1.128,0.126,2.533,0.237,3.806c0.303,3.487,0.918,6.97,0.919,10.455c0.002,5.607,0.67,11.153,1.021,16.728
		c0.205,3.264,0.739,6.546,0.554,9.788c-0.429,7.479-0.517,15-1.906,22.398c-0.833,4.436-1.621,8.889-2.683,13.272
		c-1,4.124-2.262,8.188-3.537,12.239c-1.783,5.667-3.356,11.436-5.658,16.892c-1.425,3.378-2.312,6.982-4.313,10.182
		c-1.605,2.566-2.381,5.639-3.658,8.426c-1.508,3.291-3.106,6.542-4.76,9.762c-2.266,4.409-4.523,8.826-6.969,13.136
		c-1.889,3.328-3.546,6.784-5.812,9.917c-1.69,2.338-2.834,5.063-4.379,7.518c-2.478,3.936-5.076,7.795-7.641,11.675
		c-2.059,3.116-4.111,6.238-6.229,9.314c-1.295,1.881-2.696,3.689-4.072,5.514c-2.913,3.862-5.76,7.778-8.794,11.544
		c-1.597,1.981-3.174,4.035-5.719,5.083c-1.59,0.654-2.968,0.722-4.566,0.121c-2.223-0.835-4.439-1.597-6.003-3.53
		c-1.063-1.312-1.901-2.687-1.829-4.478c0.062-1.518-0.066-3.046,0.042-4.558c0.083-1.173,0.42-2.325,0.61-3.493
		c0.164-1.005,0.277-2.019,0.431-3.166c-1.506-0.086-2.349,0.75-3.255,1.412c-1.881,1.375-3.719,2.812-5.633,4.138
		c-1.476,1.022-3.044,1.911-4.566,2.868c-3.142,1.976-6.314,3.887-9.729,5.378c-2.563,1.119-5.008,2.538-7.628,3.486
		c-2.913,1.055-5.757,2.778-8.988,2.361c-2.968-0.383-5.905-1.142-7.505-4.165c-0.326-0.616-0.75-1.184-1.162-1.751
		c-0.58-0.799-1.338-1.051-2.3-0.723c-0.556,0.189-1.268,0.568-1.688,0.377c-0.905-0.415-2.017-0.967-2.423-1.775
		c-1.3-2.588-3.467-3.42-6.096-3.932c-1.671-0.325-3.263-1.173-4.828-1.917c-4.392-2.088-8.425-4.61-10.431-9.365
		c-0.276-0.656-0.568-1.325-0.705-2.018c-0.277-1.404-0.687-2.84-0.619-4.243c0.121-2.523,0.436-5.053,0.894-7.539
		c0.312-1.686,0.985-3.309,1.536-4.946c0.398-1.186,0.798-2.378,1.307-3.518c1.982-4.441,3.439-9.083,5.391-13.548
		c2.048-4.688,3.783-9.5,6.143-14.072c1.685-3.264,2.821-6.807,4.303-10.181c0.629-1.433,1.521-2.75,2.286-4.124
		c0.876-1.575,1.798-3.127,2.593-4.742c0.558-1.132,0.819-2.417,1.42-3.52c1.351-2.477,2.859-4.867,4.248-7.323
		c0.697-1.232,1.212-2.567,1.916-3.795c2.186-3.818,4.403-7.618,6.645-11.404c2.328-3.931,4.597-7.901,7.073-11.738
		c3.144-4.873,6.477-9.624,9.715-14.437c1.084-1.611,2.098-3.272,3.2-4.871c0.97-1.407,1.996-2.777,3.038-4.133
		c2.524-3.286,5.083-6.545,7.605-9.833c1.445-1.884,2.804-3.836,4.275-5.699c1.548-1.96,3.185-3.851,4.784-5.771
		c1.259-1.512,2.42-3.122,3.799-4.514c2.692-2.718,5.667-5.034,9.611-5.687c0.522-0.086,0.996-0.503,1.516-0.563
		c1.559-0.18,3.212-0.634,4.679-0.307c4.704,1.046,9.167,2.731,12.485,6.506c0.979,1.113,1.837,2.343,2.895,3.371
		c0.818,0.794,1.78,1.563,2.823,1.973c1.6,0.627,3.325,0.937,5.073,1.401c0.068,0.147,0.203,0.351,0.259,0.574
		c0.964,3.825,0.962,3.829,5.032,4.004c0.799,0.034,1.552,0.002,2.034,0.904c0.239,0.447,0.812,0.77,1.3,1.022
		c2.444,1.262,3.363,3.424,3.704,5.989c0.196,1.481,0.511,2.946,0.762,4.421c0.067,0.393,0.148,0.796,0.129,1.189
		c-0.227,4.812,1.22,9.447,1.474,14.205c0.089,1.676,0.009,3.36,0.089,5.037c0.044,0.913,0.264,1.818,0.405,2.726
		c0.202,0.026,0.403,0.052,0.605,0.077c0.255-0.751,0.533-1.496,0.761-2.254c0.843-2.801,1.701-5.599,2.495-8.414
		c0.625-2.215,1.163-4.455,1.744-6.682c0.04-0.154,0.138-0.297,0.155-0.452c0.364-3.228,0.695-6.459,1.088-9.683
		c0.24-1.972,0.594-3.931,0.853-5.901c0.176-1.34,0.386-2.689,0.389-4.035c0.015-7.037,0.169-14.083-0.131-21.108
		c-0.19-4.435-1.093-8.839-1.677-13.256c-0.052-0.396-0.114-0.791-0.167-1.187c-0.396-2.997-0.689-6.012-1.22-8.984
		c-0.387-2.163-1.105-4.266-1.641-6.405c-0.441-1.759-0.784-3.543-1.253-5.294c-0.694-2.596-1.449-5.176-2.204-7.755
		c-0.569-1.943-1.096-3.904-1.788-5.804c-1.359-3.737-2.34-7.613-4.232-11.157c-0.888-1.662-1.452-3.495-2.319-5.169
		c-2.124-4.104-4.192-8.244-6.741-12.113c-1.739-2.639-3.421-5.318-5.251-7.892c-2.814-3.958-5.709-7.858-8.619-11.746
		c-1.272-1.7-2.836-3.203-3.956-4.99c-1.156-1.846-3.133-2.794-4.351-4.518c-0.412-0.582-0.921-1.094-1.354-1.663
		c-1.691-2.224-2.007-2.112-4.75-1.434c-1.614,0.399-3.557,0.329-5.136-0.189c-2.364-0.776-4.532-2.145-6.796-3.236
		c-2.525-1.217-5.083-2.369-7.594-3.614c-4.949-2.453-9.791-5.144-14.845-7.351c-2.636-1.151-5.086-2.669-7.721-3.718
		c-4.434-1.766-8.359-4.562-12.796-6.198c-3.948-1.457-7.587-3.814-11.887-4.292c-2.406-1.693-5.371-1.745-8.047-2.626
		c-3.905-1.286-8.007-1.978-12.031-2.899c-1.539-0.352-3.089-0.654-4.64-0.95c-2.812-0.536-5.625-1.061-8.443-1.569
		c-0.786-0.142-1.584-0.288-2.377-0.295c-3.997-0.039-7.941-0.425-11.807-1.499c-0.527-0.146-1.112-0.112-1.67-0.113
		c-3.92-0.008-7.84-0.03-11.76,0.011c-1.412,0.015-2.773,0.117-4.189,0.636c-1.44,0.528-3.151,0.363-4.746,0.416
		c-2.144,0.071-4.321-0.231-6.365,0.723c-0.21,0.098-0.468,0.1-0.706,0.13c-2.828,0.359-5.668,0.641-8.481,1.094
		c-2.102,0.339-4.176,0.863-6.247,1.368c-2.009,0.49-4.041,0.941-5.988,1.622c-3.809,1.331-7.906,1.725-11.526,3.685
		c-1.075,0.582-2.377,0.742-3.571,1.108c-4.667,1.431-9.089,3.443-13.428,5.653c-4.693,2.391-9.356,4.847-14.104,7.125
		c-4.185,2.008-8.504,3.735-12.696,5.729c-3.339,1.588-6.543,3.455-9.867,5.077c-2.847,1.39-5.759,2.655-8.679,3.886
		c-1.96,0.826-3.927,1.042-5.948-0.085c-1.303-0.728-2.437-0.045-3.355,1.002c-2.658,3.031-5.353,6.03-7.979,9.087
		c-2.038,2.372-4.081,4.747-5.965,7.239c-2.077,2.747-4.011,5.604-5.936,8.461c-1.316,1.954-2.475,4.013-3.763,5.987
		c-3.314,5.078-6.03,10.484-8.726,15.899c-1.865,3.748-3.279,7.67-4.439,11.695c-0.679,2.356-1.632,4.633-2.331,6.985
		c-0.721,2.427-1.26,4.907-1.926,7.352c-0.266,0.975-0.76,1.893-0.971,2.875c-0.416,1.937-0.642,3.915-1.067,5.849
		c-0.453,2.056-1.048,4.081-1.578,6.12c-0.061,0.231-0.136,0.463-0.16,0.7c-0.394,3.865-0.769,7.731-1.176,11.595
		c-0.107,1.023-0.294,2.039-0.468,3.053c-0.094,0.55-0.309,1.085-0.35,1.636c-0.45,6.043-0.945,12.088-0.65,18.157
		c0.256,5.26,0.376,10.539,0.934,15.77c0.514,4.82,1.458,9.6,2.352,14.371c0.614,3.278,1.449,6.515,2.222,9.761
		c0.291,1.222,0.607,2.45,1.066,3.615c0.201,0.511,0.788,0.87,1.199,1.297C32.66,253.343,32.842,253.272,33.023,253.201z"/>
</g>
</svg>
