<?xml version="1.0" encoding="utf-8"?>
<!-- Generator: Adobe Illustrator 21.0.2, SVG Export Plug-In . SVG Version: 6.00 Build 0)  -->
<svg version="1.1" id="Layer_1" xmlns="http://www.w3.org/2000/svg" xmlns:xlink="http://www.w3.org/1999/xlink" x="0px" y="0px"
	 viewBox="0 0 209.4 32" style="enable-background:new 0 0 209.4 32;" xml:space="preserve">
<style type="text/css">
	.st0{fill:#FFFFFF;}
</style>
<g>
	<polygon class="st0" points="169.1,23.9 168.7,1.9 175.6,1.9 175.6,29.6 165.6,29.6 158.7,6.8 158.6,6.8 158.9,29.6 152,29.6 
		152,1.9 162.5,1.9 168.9,23.9 	"/>
	<polygon class="st0" points="42.8,4.5 39,29.9 31.4,29.9 36.6,1.9 49.1,1.9 54.3,29.9 46.7,29.9 43,4.5 	"/>
	<polygon class="st0" points="75.5,23.3 79,1.9 90.4,1.9 91.1,29.9 84,29.9 83.9,4.7 83.7,4.7 79,29.9 71.9,29.9 67.2,4.7 67,4.7 
		66.9,29.9 59.9,29.9 60.5,1.9 71.9,1.9 75.4,23.3 	"/>
	<path class="st0" d="M19.6,22c0.3,0.7,0.2,1.6,0.1,2.1c-0.2,0.9-0.9,1.9-2.7,1.9c-1.8,0-2.8-1-2.8-2.5l0-2.7H6.5l0,2.2
		c0,6.3,4.9,8.1,10.2,8.1c5.1,0,9.3-1.7,9.9-6.4c0.3-2.4,0.1-4,0-4.6C25.5,14.1,14.8,12.4,14,9.1c-0.1-0.6-0.1-1.2,0-1.5
		c0.2-0.9,0.8-1.9,2.6-1.9c1.6,0,2.6,1,2.6,2.5V10h7V8c0-6.1-5.5-7.1-9.5-7.1c-5,0-9.1,1.6-9.8,6.2C6.7,8.4,6.6,9.6,6.9,11
		C8.2,16.7,18.1,18.3,19.6,22"/>
	<path class="st0" d="M110.8,21.9c0.3,0.7,0.2,1.5,0.1,2.1c-0.2,0.9-0.9,1.9-2.7,1.9c-1.7,0-2.8-1-2.8-2.5l0-2.7h-7.4l0,2.1
		c0,6.2,4.9,8.1,10.1,8.1c5,0,9.2-1.7,9.8-6.3c0.3-2.4,0.1-4,0-4.5c-1.2-5.8-11.7-7.5-12.5-10.8c-0.1-0.6-0.1-1.1,0-1.5
		c0.2-0.9,0.8-1.9,2.5-1.9c1.6,0,2.6,1,2.6,2.5v1.7h6.9v-2c0-6-5.4-7-9.4-7c-4.9,0-9,1.6-9.7,6.2C98,8.5,98,9.6,98.3,11
		C99.5,16.7,109.4,18.3,110.8,21.9"/>
	<path class="st0" d="M134.4,25.7c1.9,0,2.6-1.3,2.7-2c0-0.3,0-0.7,0-1.1V1.9h7.1v20.1c0,0.5,0,1.6-0.1,1.8
		c-0.5,5.2-4.6,6.9-9.8,6.9c-5.2,0-9.3-1.7-9.8-6.9c0-0.3-0.1-1.3-0.1-1.8V1.9h7.1v20.7c0,0.4,0,0.8,0.1,1.1
		C131.8,24.3,132.4,25.7,134.4,25.7"/>
	<path class="st0" d="M192.9,25.4c2,0,2.8-1.3,2.9-2c0.1-0.3,0.1-0.7,0.1-1.1v-4.1H193v-4.1h9.9v7.5c0,0.5,0,0.9-0.1,1.8
		c-0.5,5.1-4.9,6.9-9.9,6.9c-5,0-9.4-1.8-9.9-6.9c-0.1-0.9-0.1-1.3-0.1-1.8l0-11.8c0-0.5,0-1.4,0.1-1.8c0.6-5.2,4.9-6.9,9.8-6.9
		c5,0,9.3,1.7,9.8,6.9c0.1,0.9,0.1,1.8,0.1,1.8v0.9h-7.1V9.2c0,0,0-0.7-0.1-1.1c-0.1-0.6-0.6-2-2.8-2c-2,0-2.6,1.3-2.8,2
		C190,8.5,190,9,190,9.5v12.8c0,0.4,0,0.7,0.1,1.1C190.2,24.1,190.9,25.4,192.9,25.4"/>
	<polygon class="st0" points="169.1,23.9 168.7,1.9 175.6,1.9 175.6,29.6 165.6,29.6 158.7,6.8 158.6,6.8 158.9,29.6 152,29.6 
		152,1.9 162.5,1.9 168.9,23.9 	"/>
	<polygon class="st0" points="42.8,4.5 39,29.9 31.4,29.9 36.6,1.9 49.1,1.9 54.3,29.9 46.7,29.9 43,4.5 	"/>
	<polygon class="st0" points="75.5,23.3 79,1.9 90.4,1.9 91.1,29.9 84,29.9 83.9,4.7 83.7,4.7 79,29.9 71.9,29.9 67.2,4.7 67,4.7 
		66.9,29.9 59.9,29.9 60.5,1.9 71.9,1.9 75.4,23.3 	"/>
	<path class="st0" d="M19.6,22c0.3,0.7,0.2,1.6,0.1,2.1c-0.2,0.9-0.9,1.9-2.7,1.9c-1.8,0-2.8-1-2.8-2.5l0-2.7H6.5l0,2.2
		c0,6.3,4.9,8.1,10.2,8.1c5.1,0,9.3-1.7,9.9-6.4c0.3-2.4,0.1-4,0-4.6C25.5,14.1,14.8,12.4,14,9.1c-0.1-0.6-0.1-1.2,0-1.5
		c0.2-0.9,0.8-1.9,2.6-1.9c1.6,0,2.6,1,2.6,2.5V10h7V8c0-6.1-5.5-7.1-9.5-7.1c-5,0-9.1,1.6-9.8,6.2C6.7,8.4,6.6,9.6,6.9,11
		C8.2,16.7,18.1,18.3,19.6,22"/>
	<path class="st0" d="M110.8,21.9c0.3,0.7,0.2,1.5,0.1,2.1c-0.2,0.9-0.9,1.9-2.7,1.9c-1.7,0-2.8-1-2.8-2.5l0-2.7h-7.4l0,2.1
		c0,6.2,4.9,8.1,10.1,8.1c5,0,9.2-1.7,9.8-6.3c0.3-2.4,0.1-4,0-4.5c-1.2-5.8-11.7-7.5-12.5-10.8c-0.1-0.6-0.1-1.1,0-1.5
		c0.2-0.9,0.8-1.9,2.5-1.9c1.6,0,2.6,1,2.6,2.5v1.7h6.9v-2c0-6-5.4-7-9.4-7c-4.9,0-9,1.6-9.7,6.2C98,8.5,98,9.6,98.3,11
		C99.5,16.7,109.4,18.3,110.8,21.9"/>
	<path class="st0" d="M134.4,25.7c1.9,0,2.6-1.3,2.7-2c0-0.3,0-0.7,0-1.1V1.9h7.1v20.1c0,0.5,0,1.6-0.1,1.8
		c-0.5,5.2-4.6,6.9-9.8,6.9c-5.2,0-9.3-1.7-9.8-6.9c0-0.3-0.1-1.3-0.1-1.8V1.9h7.1v20.7c0,0.4,0,0.8,0.1,1.1
		C131.8,24.3,132.4,25.7,134.4,25.7"/>
	<path class="st0" d="M192.9,25.4c2,0,2.8-1.3,2.9-2c0.1-0.3,0.1-0.7,0.1-1.1v-4.1H193v-4.1h9.9v7.5c0,0.5,0,0.9-0.1,1.8
		c-0.5,5.1-4.9,6.9-9.9,6.9c-5,0-9.4-1.8-9.9-6.9c-0.1-0.9-0.1-1.3-0.1-1.8l0-11.8c0-0.5,0-1.4,0.1-1.8c0.6-5.2,4.9-6.9,9.8-6.9
		c5,0,9.3,1.7,9.8,6.9c0.1,0.9,0.1,1.8,0.1,1.8v0.9h-7.1V9.2c0,0,0-0.7-0.1-1.1c-0.1-0.6-0.6-2-2.8-2c-2,0-2.6,1.3-2.8,2
		C190,8.5,190,9,190,9.5v12.8c0,0.4,0,0.7,0.1,1.1C190.2,24.1,190.9,25.4,192.9,25.4"/>
</g>
</svg>
