<?xml version="1.0" encoding="utf-8"?>
<!-- Generator: Adobe Illustrator 16.0.0, SVG Export Plug-In . SVG Version: 6.00 Build 0)  -->
<!DOCTYPE svg PUBLIC "-//W3C//DTD SVG 1.1//EN" "http://www.w3.org/Graphics/SVG/1.1/DTD/svg11.dtd">
<svg version="1.1" id="Layout" xmlns="http://www.w3.org/2000/svg" xmlns:xlink="http://www.w3.org/1999/xlink" x="0px" y="0px"
	 width="556.855px" height="417.643px" viewBox="0 0 556.855 417.643" enable-background="new 0 0 556.855 417.643"
	 xml:space="preserve">
<rect x="-5086.072" y="-1614.663" width="9910" height="3646.969"/>
<path fill="#FFFFFF" d="M278.166,400.94c-27.294,0-52.845-5.039-76.64-15.108c-23.799-10.073-44.539-23.739-62.199-40.984
	c-17.68-17.248-31.585-37.57-41.735-60.972c-10.149-23.391-15.216-48.413-15.216-75.052c0-26.643,5.067-51.565,15.216-74.793
	c10.15-23.227,24.055-43.55,41.735-60.979c17.66-17.421,38.4-31.162,62.199-41.231c23.795-10.078,49.346-15.118,76.64-15.118
	c27.29,0,52.833,5.04,76.636,15.118c23.791,10.069,44.615,23.811,62.467,41.231c17.844,17.429,31.833,37.752,41.991,60.979
	c10.142,23.228,15.221,48.15,15.221,74.793c0,26.639-5.08,51.661-15.221,75.052c-10.158,23.401-24.147,43.724-41.991,60.972
	c-17.853,17.245-38.676,30.911-62.467,40.984C330.999,395.901,305.456,400.94,278.166,400.94 M278.166,330.604
	c17.492,0,33.857-3.201,49.079-9.603c15.22-6.392,28.513-15.069,39.895-26.02c11.37-10.949,20.292-23.838,26.771-38.668
	c6.471-14.821,9.71-30.646,9.71-47.49s-3.24-32.673-9.71-47.502c-6.479-14.82-15.4-27.707-26.771-38.652
	c-11.382-10.949-24.675-19.627-39.895-26.022c-15.222-6.398-31.586-9.61-49.079-9.61c-17.5,0-33.861,3.212-49.078,9.61
	c-15.225,6.396-28.442,15.073-39.632,26.022c-11.206,10.945-20.04,23.832-26.515,38.652c-6.479,14.829-9.71,30.657-9.71,47.502
	s3.231,32.669,9.71,47.49c6.475,14.83,15.309,27.719,26.515,38.668c11.19,10.95,24.407,19.628,39.632,26.02
	C244.305,327.403,260.665,330.604,278.166,330.604"/>
</svg>
