<?xml version="1.0" encoding="utf-8"?>
<!-- Generator: Adobe Illustrator 16.0.0, SVG Export Plug-In . SVG Version: 6.00 Build 0)  -->
<!DOCTYPE svg PUBLIC "-//W3C//DTD SVG 1.1//EN" "http://www.w3.org/Graphics/SVG/1.1/DTD/svg11.dtd">
<svg version="1.1" id="Layout" xmlns="http://www.w3.org/2000/svg" xmlns:xlink="http://www.w3.org/1999/xlink" x="0px" y="0px"
	 width="556.855px" height="417.643px" viewBox="0 0 556.855 417.643" enable-background="new 0 0 556.855 417.643"
	 xml:space="preserve">
<rect x="-5905.072" y="-1614.663" width="9910" height="3646.969"/>
<path fill="#FFFFFF" d="M278.43,400.937c-19.949,0-38.316-2.936-55.117-8.811c-16.796-5.879-31.413-14.518-43.831-25.927
	c-12.421-11.406-22.047-25.578-28.871-42.518c-6.822-16.941-10.237-36.47-10.237-58.597V17.224h71.393v251.371
	c0,9.314,1.655,18.017,4.983,26.123c3.323,8.104,7.958,15.089,13.914,20.947c5.943,5.863,12.941,10.522,20.996,13.97
	c8.05,3.444,16.796,5.167,26.246,5.167s18.188-1.723,26.243-5.167c8.046-3.447,15.137-8.106,21.264-13.97
	c6.115-5.858,10.934-12.844,14.433-20.947c3.495-8.106,5.247-16.809,5.247-26.123V17.224h71.39v247.861
	c0,22.127-3.503,41.655-10.498,58.597c-7.003,16.939-16.625,31.111-28.866,42.518c-12.258,11.409-26.771,20.048-43.572,25.927
	C316.75,398.001,298.378,400.937,278.43,400.937"/>
</svg>
