<?xml version="1.0" encoding="utf-8"?>
<!-- Generator: Adobe Illustrator 16.0.0, SVG Export Plug-In . SVG Version: 6.00 Build 0)  -->
<!DOCTYPE svg PUBLIC "-//W3C//DTD SVG 1.1//EN" "http://www.w3.org/Graphics/SVG/1.1/DTD/svg11.dtd">
<svg version="1.1" id="Layout" xmlns="http://www.w3.org/2000/svg" xmlns:xlink="http://www.w3.org/1999/xlink" x="0px" y="0px"
	 width="556.855px" height="417.643px" viewBox="0 0 556.855 417.643" enable-background="new 0 0 556.855 417.643"
	 xml:space="preserve">
<rect x="-6724.072" y="-1614.663" width="9910" height="3646.969"/>
<path fill="#FFFFFF" d="M237.599,343.224c0-12.354,3.672-22.291,11.018-29.804c7.343-7.52,17.365-11.275,30.062-11.275
	c12.689,0,22.624,3.756,29.811,11.275c7.179,7.513,10.77,17.45,10.77,29.804c0,12.027-3.679,21.796-11.022,29.311
	c-7.35,7.515-17.367,11.27-30.057,11.27c-12.697,0-22.631-3.755-29.811-11.27C241.183,365.02,237.599,355.251,237.599,343.224
	 M260.646,284.108c-2.343-15.027-4.431-31.142-6.263-48.346c-1.839-17.197-3.431-34.816-4.759-52.854
	c-1.343-18.036-2.427-36.147-3.259-54.355c-0.836-18.205-1.251-35.648-1.251-52.358V17.584h67.133v58.611
	c0,16.71-0.34,34.153-1.003,52.358c-0.673,18.208-1.677,36.319-3.009,54.355c-1.334,18.037-2.927,35.656-4.759,52.854
	c-1.839,17.204-3.927,33.318-6.262,48.346H260.646z"/>
</svg>
