<?xml version="1.0" encoding="utf-8"?>
<!-- Generator: Adobe Illustrator 16.0.0, SVG Export Plug-In . SVG Version: 6.00 Build 0)  -->
<!DOCTYPE svg PUBLIC "-//W3C//DTD SVG 1.1//EN" "http://www.w3.org/Graphics/SVG/1.1/DTD/svg11.dtd">
<svg version="1.1" id="Layout" xmlns="http://www.w3.org/2000/svg" xmlns:xlink="http://www.w3.org/1999/xlink" x="0px" y="0px"
	 width="556.855px" height="417.643px" viewBox="0 0 556.855 417.643" enable-background="new 0 0 556.855 417.643"
	 xml:space="preserve">
<rect x="-7543.072" y="-2856.663" width="9910" height="3646.969"/>
<polygon fill="#00BCD4" points="-7009.256,245.575 -7019.071,777.306 2258.141,777.306 2258.141,-788.685 "/>
<g>
	<polygon fill="#FFFFFF" points="28.456,296.075 28.456,222.978 43.276,222.978 43.276,251.91 72.364,251.91 72.364,222.978 
		87.182,222.978 87.182,296.075 72.364,296.075 72.364,265.173 43.276,265.173 43.276,296.075 	"/>
	<path fill="#FFFFFF" d="M134.273,297.611c-5.706,0-10.668-1.098-14.87-3.287c-4.209-2.193-7.703-5.098-10.487-8.714
		c-2.783-3.616-4.866-7.687-6.255-12.221c-1.394-4.529-2.086-9.167-2.086-13.916c0-4.677,0.692-9.295,2.086-13.864
		c1.389-4.562,3.472-8.64,6.255-12.219c2.784-3.579,6.297-6.465,10.539-8.655c4.243-2.193,9.183-3.292,14.818-3.292
		c5.706,0,10.683,1.099,14.93,3.292c4.243,2.19,7.797,5.076,10.649,8.655c2.854,3.579,4.973,7.656,6.366,12.219
		c1.386,4.569,2.087,9.188,2.087,13.864c0,4.675-0.701,9.298-2.087,13.864c-1.394,4.563-3.513,8.641-6.366,12.221
		c-2.853,3.574-6.406,6.483-10.649,8.71C144.956,296.494,139.979,297.611,134.273,297.611 M115.504,259.474
		c0,3.289,0.401,6.433,1.209,9.426c0.804,2.993,2.009,5.659,3.62,8c1.61,2.337,3.568,4.202,5.876,5.588
		c2.3,1.39,4.995,2.082,8.064,2.082c3.074,0,5.799-0.692,8.177-2.082c2.377-1.386,4.376-3.251,5.982-5.588
		c1.611-2.341,2.82-5.021,3.623-8.058c0.805-3.031,1.21-6.153,1.21-9.368c0-3.218-0.405-6.34-1.21-9.369
		c-0.803-3.035-2.012-5.714-3.623-8.054c-1.606-2.338-3.605-4.203-5.982-5.594c-2.378-1.382-5.103-2.082-8.177-2.082
		c-3.069,0-5.765,0.7-8.064,2.082c-2.308,1.391-4.266,3.256-5.876,5.594c-1.611,2.34-2.816,5.019-3.62,8.054
		C115.905,253.134,115.504,256.256,115.504,259.474"/>
	<path fill="#FFFFFF" d="M196.185,269.773v26.302h-14.49V222.98h24.586c5.271,0,9.736,0.584,13.393,1.755
		c3.66,1.164,6.624,2.757,8.896,4.763c2.263,2.014,3.913,4.386,4.935,7.125c1.029,2.739,1.538,5.681,1.538,8.821
		c0,3.067-0.457,6.067-1.372,8.988c-0.914,2.921-2.466,5.518-4.662,7.781c-2.197,2.263-5.088,4.091-8.675,5.481
		c-3.587,1.385-8.01,2.078-13.28,2.078H196.185z M196.185,235.585v21.586h9.436c4.539,0,8.147-0.801,10.816-2.407
		c2.672-1.611,4.008-4.42,4.008-8.441c0-3.436-1.1-6.082-3.296-7.948c-2.198-1.861-6.035-2.789-11.528-2.789H196.185z"/>
	<polygon fill="#FFFFFF" points="246.788,296.075 246.788,222.978 297.062,222.978 297.062,236.24 261.606,236.24 261.606,252.898 
		290.913,252.898 290.913,266.157 261.606,266.157 261.606,282.815 299.587,282.815 299.587,296.075 	"/>
	<polygon fill="#FFFFFF" points="333.065,296.075 333.065,222.978 382.903,222.978 382.903,236.24 347.884,236.24 347.884,253.557 
		375.767,253.557 375.767,266.596 347.884,266.596 347.884,296.075 	"/>
	<path fill="#FFFFFF" d="M420.992,297.611c-5.706,0-10.667-1.098-14.873-3.287c-4.21-2.193-7.705-5.098-10.484-8.714
		c-2.782-3.616-4.866-7.687-6.255-12.221c-1.395-4.529-2.087-9.167-2.087-13.916c0-4.677,0.692-9.295,2.087-13.864
		c1.389-4.562,3.473-8.64,6.255-12.219c2.779-3.579,6.293-6.465,10.54-8.655c4.242-2.193,9.183-3.292,14.817-3.292
		c5.707,0,10.684,1.099,14.929,3.292c4.244,2.19,7.795,5.076,10.644,8.655c2.859,3.579,4.979,7.656,6.374,12.219
		c1.386,4.569,2.082,9.188,2.082,13.864c0,4.675-0.696,9.298-2.082,13.864c-1.395,4.563-3.515,8.641-6.374,12.221
		c-2.849,3.574-6.399,6.483-10.644,8.71C431.676,296.494,426.699,297.611,420.992,297.611 M402.224,259.474
		c0,3.289,0.4,6.433,1.204,9.426s2.013,5.659,3.624,8c1.61,2.337,3.568,4.202,5.876,5.588c2.3,1.39,4.987,2.082,8.064,2.082
		c3.071,0,5.8-0.692,8.177-2.082c2.378-1.386,4.376-3.251,5.982-5.588c1.607-2.341,2.816-5.021,3.623-8.058
		c0.804-3.031,1.21-6.153,1.21-9.368c0-3.218-0.406-6.34-1.21-9.369c-0.807-3.035-2.016-5.714-3.623-8.054
		c-1.606-2.338-3.604-4.203-5.982-5.594c-2.377-1.382-5.105-2.082-8.177-2.082c-3.077,0-5.765,0.7-8.064,2.082
		c-2.308,1.391-4.266,3.256-5.876,5.594c-1.611,2.34-2.82,5.019-3.624,8.054C402.624,253.134,402.224,256.256,402.224,259.474"/>
	<path fill="#FFFFFF" d="M468.408,296.075V222.98h29.313c3.145,0,6.292,0.346,9.439,1.039c3.145,0.696,5.962,1.88,8.453,3.565
		c2.486,1.681,4.516,3.943,6.09,6.794c1.573,2.846,2.359,6.391,2.359,10.631c0,5.256-1.354,9.901-4.062,13.915
		c-2.707,4.021-7.063,6.901-13.064,8.654l18.881,28.496h-16.792l-18.109-27.396h-8.015v27.396H468.408z M482.902,256.075h11.524
		c5.562,0,9.458-0.858,11.691-2.573c2.23-1.713,3.348-4.219,3.348-7.509c0-3.505-1.117-6.101-3.348-7.776
		c-2.233-1.683-6.129-2.523-11.691-2.523h-11.524V256.075z"/>
	<polygon fill="#FFFFFF" points="443.11,178.599 442.118,122.305 459.927,122.305 459.927,193.273 434.319,193.273 416.603,135.049 
		416.204,135.049 417.188,193.273 399.521,193.273 399.521,122.305 426.205,122.305 442.708,178.599 	"/>
	<polygon fill="#FFFFFF" points="119.993,128.963 110.17,194.007 90.755,194.007 104.076,122.305 136.007,122.305 149.284,194.007 
		129.998,194.007 120.398,128.963 	"/>
	<polygon fill="#FFFFFF" points="203.724,177.135 212.599,122.303 241.886,122.303 243.457,194.007 225.472,194.007 225.022,129.55 
		224.62,129.575 212.647,194.007 194.44,194.007 182.423,129.55 182.015,129.55 181.568,194.007 163.627,194.007 165.202,122.303 
		194.48,122.303 203.317,177.135 	"/>
	<path fill="#FFFFFF" d="M60.55,173.77c0.707,1.742,0.476,3.974,0.157,5.312c-0.601,2.389-2.229,4.833-7.018,4.833
		c-4.482,0-7.215-2.595-7.215-6.507l-0.028-6.937H27.204l-0.012,5.514c0,15.995,12.61,20.819,26.103,20.819
		c13.009,0,23.688-4.431,25.395-16.37c0.851-6.195,0.225-10.259-0.085-11.763c-3.008-15.039-30.29-19.514-32.299-27.903
		c-0.357-1.442-0.269-2.965-0.096-3.754c0.52-2.291,2.082-4.817,6.576-4.817c4.188,0,6.657,2.591,6.657,6.488v4.452h17.901v-5.051
		c0-15.615-14.013-18.054-24.197-18.054c-12.743,0-23.193,4.205-25.1,15.917c-0.526,3.195-0.59,6.056,0.181,9.649
		C31.311,160.259,56.848,164.495,60.55,173.77"/>
	<path fill="#FFFFFF" d="M294.043,173.637c0.674,1.729,0.446,3.922,0.132,5.271c-0.582,2.348-2.199,4.752-6.951,4.752
		c-4.395,0-7.131-2.551-7.131-6.437l-0.043-6.868h-19.021l-0.039,5.475c0,15.821,12.518,20.612,25.836,20.612
		c12.868,0,23.452-4.393,25.154-16.229c0.852-6.127,0.229-10.131-0.096-11.643c-2.997-14.873-29.947-19.298-31.971-27.614
		c-0.357-1.426-0.266-2.915-0.089-3.723c0.487-2.277,2.065-4.766,6.503-4.766c4.17,0,6.595,2.556,6.595,6.434v4.396h17.761v-4.994
		c0-15.46-13.905-17.879-23.994-17.879c-12.604,0-22.965,4.165-24.846,15.751c-0.489,3.163-0.586,6.008,0.178,9.581
		C265.068,160.259,290.367,164.461,294.043,173.637"/>
	<path fill="#FFFFFF" d="M354.312,183.265c4.976,0,6.544-3.425,6.912-5.198c0.128-0.762,0.128-1.802,0.128-2.737v-53.041h18.163
		v51.423c0.044,1.312-0.089,4.002-0.133,4.71c-1.253,13.382-11.881,17.713-25.07,17.713c-13.182,0-23.81-4.331-25.067-17.713
		c-0.043-0.708-0.224-3.398-0.132-4.71v-51.423h18.114v53.041c0,0.936,0,1.976,0.181,2.737
		C347.766,179.84,349.34,183.265,354.312,183.265"/>
	<path fill="#FFFFFF" d="M504.055,182.524c5.205,0,7.044-3.295,7.357-5.198c0.181-0.825,0.181-1.816,0.181-2.727V164.2h-7.354
		v-10.466h25.425v19.225c0,1.349-0.041,2.333-0.27,4.725c-1.165,13.053-12.515,17.717-25.246,17.717
		c-12.74,0-24.035-4.664-25.252-17.717c-0.217-2.392-0.217-3.376-0.269-4.725l0.052-30.161c0-1.283,0.121-3.524,0.266-4.733
		c1.611-13.393,12.463-17.697,25.203-17.697c12.731,0,23.901,4.261,25.201,17.697c0.273,2.3,0.186,4.733,0.186,4.733v2.382h-18.122
		v-4.019c0.041,0.021,0-1.681-0.229-2.729c-0.309-1.573-1.655-5.205-7.173-5.205c-5.209,0-6.728,3.436-7.129,5.205
		c-0.226,0.947-0.317,2.239-0.317,3.396V174.6c0,0.91,0.051,1.901,0.181,2.727C497.058,179.229,498.894,182.524,504.055,182.524"/>
	<polygon fill="#FFFFFF" points="28.456,296.075 28.456,222.978 43.276,222.978 43.276,251.91 72.364,251.91 72.364,222.978 
		87.182,222.978 87.182,296.075 72.364,296.075 72.364,265.173 43.276,265.173 43.276,296.075 	"/>
	<path fill="#FFFFFF" d="M134.273,297.611c-5.706,0-10.668-1.098-14.87-3.287c-4.209-2.193-7.703-5.098-10.487-8.714
		c-2.783-3.616-4.866-7.687-6.255-12.221c-1.394-4.529-2.086-9.167-2.086-13.916c0-4.677,0.692-9.295,2.086-13.864
		c1.389-4.562,3.472-8.64,6.255-12.219c2.784-3.579,6.297-6.465,10.539-8.655c4.243-2.193,9.183-3.292,14.818-3.292
		c5.706,0,10.683,1.099,14.93,3.292c4.243,2.19,7.797,5.076,10.649,8.655c2.854,3.579,4.973,7.656,6.366,12.219
		c1.386,4.569,2.087,9.188,2.087,13.864c0,4.675-0.701,9.298-2.087,13.864c-1.394,4.563-3.513,8.641-6.366,12.221
		c-2.853,3.574-6.406,6.483-10.649,8.71C144.956,296.494,139.979,297.611,134.273,297.611 M115.504,259.474
		c0,3.289,0.401,6.433,1.209,9.426c0.804,2.993,2.009,5.659,3.62,8c1.61,2.337,3.568,4.202,5.876,5.588
		c2.3,1.39,4.995,2.082,8.064,2.082c3.074,0,5.799-0.692,8.177-2.082c2.377-1.386,4.376-3.251,5.982-5.588
		c1.611-2.341,2.82-5.021,3.623-8.058c0.805-3.031,1.21-6.153,1.21-9.368c0-3.218-0.405-6.34-1.21-9.369
		c-0.803-3.035-2.012-5.714-3.623-8.054c-1.606-2.338-3.605-4.203-5.982-5.594c-2.378-1.382-5.103-2.082-8.177-2.082
		c-3.069,0-5.765,0.7-8.064,2.082c-2.308,1.391-4.266,3.256-5.876,5.594c-1.611,2.34-2.816,5.019-3.62,8.054
		C115.905,253.134,115.504,256.256,115.504,259.474"/>
	<path fill="#FFFFFF" d="M196.185,269.773v26.302h-14.49V222.98h24.586c5.271,0,9.736,0.584,13.393,1.755
		c3.66,1.164,6.624,2.757,8.896,4.763c2.263,2.014,3.913,4.386,4.935,7.125c1.029,2.739,1.538,5.681,1.538,8.821
		c0,3.067-0.457,6.067-1.372,8.988c-0.914,2.921-2.466,5.518-4.662,7.781c-2.197,2.263-5.088,4.091-8.675,5.481
		c-3.587,1.385-8.01,2.078-13.28,2.078H196.185z M196.185,235.585v21.586h9.436c4.539,0,8.147-0.801,10.816-2.407
		c2.672-1.611,4.008-4.42,4.008-8.441c0-3.436-1.1-6.082-3.296-7.948c-2.198-1.861-6.035-2.789-11.528-2.789H196.185z"/>
	<polygon fill="#FFFFFF" points="246.788,296.075 246.788,222.978 297.062,222.978 297.062,236.24 261.606,236.24 261.606,252.898 
		290.913,252.898 290.913,266.157 261.606,266.157 261.606,282.815 299.587,282.815 299.587,296.075 	"/>
	<polygon fill="#FFFFFF" points="333.065,296.075 333.065,222.978 382.903,222.978 382.903,236.24 347.884,236.24 347.884,253.557 
		375.767,253.557 375.767,266.596 347.884,266.596 347.884,296.075 	"/>
	<path fill="#FFFFFF" d="M420.992,297.611c-5.706,0-10.667-1.098-14.873-3.287c-4.21-2.193-7.705-5.098-10.484-8.714
		c-2.782-3.616-4.866-7.687-6.255-12.221c-1.395-4.529-2.087-9.167-2.087-13.916c0-4.677,0.692-9.295,2.087-13.864
		c1.389-4.562,3.473-8.64,6.255-12.219c2.779-3.579,6.293-6.465,10.54-8.655c4.242-2.193,9.183-3.292,14.817-3.292
		c5.707,0,10.684,1.099,14.929,3.292c4.244,2.19,7.795,5.076,10.644,8.655c2.859,3.579,4.979,7.656,6.374,12.219
		c1.386,4.569,2.082,9.188,2.082,13.864c0,4.675-0.696,9.298-2.082,13.864c-1.395,4.563-3.515,8.641-6.374,12.221
		c-2.849,3.574-6.399,6.483-10.644,8.71C431.676,296.494,426.699,297.611,420.992,297.611 M402.224,259.474
		c0,3.289,0.4,6.433,1.204,9.426s2.013,5.659,3.624,8c1.61,2.337,3.568,4.202,5.876,5.588c2.3,1.39,4.987,2.082,8.064,2.082
		c3.071,0,5.8-0.692,8.177-2.082c2.378-1.386,4.376-3.251,5.982-5.588c1.607-2.341,2.816-5.021,3.623-8.058
		c0.804-3.031,1.21-6.153,1.21-9.368c0-3.218-0.406-6.34-1.21-9.369c-0.807-3.035-2.016-5.714-3.623-8.054
		c-1.606-2.338-3.604-4.203-5.982-5.594c-2.377-1.382-5.105-2.082-8.177-2.082c-3.077,0-5.765,0.7-8.064,2.082
		c-2.308,1.391-4.266,3.256-5.876,5.594c-1.611,2.34-2.82,5.019-3.624,8.054C402.624,253.134,402.224,256.256,402.224,259.474"/>
	<path fill="#FFFFFF" d="M468.408,296.075V222.98h29.313c3.145,0,6.292,0.346,9.439,1.039c3.145,0.696,5.962,1.88,8.453,3.565
		c2.486,1.681,4.516,3.943,6.09,6.794c1.573,2.846,2.359,6.391,2.359,10.631c0,5.256-1.354,9.901-4.062,13.915
		c-2.707,4.021-7.063,6.901-13.064,8.654l18.881,28.496h-16.792l-18.109-27.396h-8.015v27.396H468.408z M482.902,256.075h11.524
		c5.562,0,9.458-0.858,11.691-2.573c2.23-1.713,3.348-4.219,3.348-7.509c0-3.505-1.117-6.101-3.348-7.776
		c-2.233-1.683-6.129-2.523-11.691-2.523h-11.524V256.075z"/>
	<polygon fill="#FFFFFF" points="443.11,178.599 442.118,122.305 459.927,122.305 459.927,193.273 434.319,193.273 416.603,135.049 
		416.204,135.049 417.188,193.273 399.521,193.273 399.521,122.305 426.205,122.305 442.708,178.599 	"/>
	<polygon fill="#FFFFFF" points="119.993,128.963 110.17,194.007 90.755,194.007 104.076,122.305 136.007,122.305 149.284,194.007 
		129.998,194.007 120.398,128.963 	"/>
	<polygon fill="#FFFFFF" points="203.724,177.135 212.599,122.303 241.886,122.303 243.457,194.007 225.472,194.007 225.022,129.55 
		224.62,129.575 212.647,194.007 194.44,194.007 182.423,129.55 182.015,129.55 181.568,194.007 163.627,194.007 165.202,122.303 
		194.48,122.303 203.317,177.135 	"/>
	<path fill="#FFFFFF" d="M60.55,173.77c0.707,1.742,0.476,3.974,0.157,5.312c-0.601,2.389-2.229,4.833-7.018,4.833
		c-4.482,0-7.215-2.595-7.215-6.507l-0.028-6.937H27.204l-0.012,5.514c0,15.995,12.61,20.819,26.103,20.819
		c13.009,0,23.688-4.431,25.395-16.37c0.851-6.195,0.225-10.259-0.085-11.763c-3.008-15.039-30.29-19.514-32.299-27.903
		c-0.357-1.442-0.269-2.965-0.096-3.754c0.52-2.291,2.082-4.817,6.576-4.817c4.188,0,6.657,2.591,6.657,6.488v4.452h17.901v-5.051
		c0-15.615-14.013-18.054-24.197-18.054c-12.743,0-23.193,4.205-25.1,15.917c-0.526,3.195-0.59,6.056,0.181,9.649
		C31.311,160.259,56.848,164.495,60.55,173.77"/>
	<path fill="#FFFFFF" d="M294.043,173.637c0.674,1.729,0.446,3.922,0.132,5.271c-0.582,2.348-2.199,4.752-6.951,4.752
		c-4.395,0-7.131-2.551-7.131-6.437l-0.043-6.868h-19.021l-0.039,5.475c0,15.821,12.518,20.612,25.836,20.612
		c12.868,0,23.452-4.393,25.154-16.229c0.852-6.127,0.229-10.131-0.096-11.643c-2.997-14.873-29.947-19.298-31.971-27.614
		c-0.357-1.426-0.266-2.915-0.089-3.723c0.487-2.277,2.065-4.766,6.503-4.766c4.17,0,6.595,2.556,6.595,6.434v4.396h17.761v-4.994
		c0-15.46-13.905-17.879-23.994-17.879c-12.604,0-22.965,4.165-24.846,15.751c-0.489,3.163-0.586,6.008,0.178,9.581
		C265.068,160.259,290.367,164.461,294.043,173.637"/>
	<path fill="#FFFFFF" d="M354.312,183.265c4.976,0,6.544-3.425,6.912-5.198c0.128-0.762,0.128-1.802,0.128-2.737v-53.041h18.163
		v51.423c0.044,1.312-0.089,4.002-0.133,4.71c-1.253,13.382-11.881,17.713-25.07,17.713c-13.182,0-23.81-4.331-25.067-17.713
		c-0.043-0.708-0.224-3.398-0.132-4.71v-51.423h18.114v53.041c0,0.936,0,1.976,0.181,2.737
		C347.766,179.84,349.34,183.265,354.312,183.265"/>
	<path fill="#FFFFFF" d="M504.055,182.524c5.205,0,7.044-3.295,7.357-5.198c0.181-0.825,0.181-1.816,0.181-2.727V164.2h-7.354
		v-10.466h25.425v19.225c0,1.349-0.041,2.333-0.27,4.725c-1.165,13.053-12.515,17.717-25.246,17.717
		c-12.74,0-24.035-4.664-25.252-17.717c-0.217-2.392-0.217-3.376-0.269-4.725l0.052-30.161c0-1.283,0.121-3.524,0.266-4.733
		c1.611-13.393,12.463-17.697,25.203-17.697c12.731,0,23.901,4.261,25.201,17.697c0.273,2.3,0.186,4.733,0.186,4.733v2.382h-18.122
		v-4.019c0.041,0.021,0-1.681-0.229-2.729c-0.309-1.573-1.655-5.205-7.173-5.205c-5.209,0-6.728,3.436-7.129,5.205
		c-0.226,0.947-0.317,2.239-0.317,3.396V174.6c0,0.91,0.051,1.901,0.181,2.727C497.058,179.229,498.894,182.524,504.055,182.524"/>
</g>
</svg>
