<?xml version="1.0" encoding="utf-8"?>
<!-- Generator: Adobe Illustrator 16.0.0, SVG Export Plug-In . SVG Version: 6.00 Build 0)  -->
<!DOCTYPE svg PUBLIC "-//W3C//DTD SVG 1.1//EN" "http://www.w3.org/Graphics/SVG/1.1/DTD/svg11.dtd">
<svg version="1.1" id="Layout" xmlns="http://www.w3.org/2000/svg" xmlns:xlink="http://www.w3.org/1999/xlink" x="0px" y="0px"
	 width="556.855px" height="417.643px" viewBox="0 0 556.855 417.643" enable-background="new 0 0 556.855 417.643"
	 xml:space="preserve">
<rect x="-8362.072" y="-2856.663" width="9910" height="3646.969"/>
<polygon fill="#00BCD4" points="-7828.256,245.575 -7838.071,777.306 1439.141,777.306 1439.141,-788.685 "/>
<g>
	<path fill="#FFFFFF" d="M488.832,63.871c-20.439-6.443-45.174-2.894-63.51,3.83c-30.887,20.089-40.324,52.765-39.916,73.415
		c0.156,7.504,7.684,32.906,23.984,42.336c13.189,8.876,30.775,10.126,30.775,10.126s7.494-3.741,9.088-5.823
		c1.594-2.083,5.701-12.051,5.701-12.051s-0.574-7.389-4.658-10.352c-1.391-1.021-13.574,3.469-18.742,0.025
		c-4.824-1.031-7.1-4.213-5.857-6.535c-4.357,0.258-7.221-1.36-9.73-2.345c-4.303-1.694-5.338-8.917-5.338-8.917
		s2.791-2.768,4.205-5.014c-2.709-2.461-2.949-5.373-4.312-8.139c0.711-6.539,5.877-16.854,12.461-14.66
		c-3.139-5.637,0.305-11.482,0.305-11.482s10.514-11.221,14.457-7.033c-0.768-2.985,1.92-7.627,1.92-7.627s7.539-4.918,12.932-5.568
		c3.938,0.534,7.061,3.168,7.207,9.226c3.064-4.054,16.541-5.162,16.541-5.162s7.574,3.783,6.543,12.041
		c3.1-5.503,8.768-2.618,13.779-0.69c1.809,1.994,7.328,5.481,1.898,9.877c2.742,0.732,7.041,2.347,8.434,4.912
		c1.869,3.436,0.346,7.91,0.346,7.91s-0.688,5.848-6.455,6.552c2.795,0.663,6.01,2.806,7.355,3.805
		c0.82,1.766,3.561,4.515,3.926,7.526c-0.693,4.129-3.105,14.104-12.748,12.382c-1.035,3.787-9.646,6.879-9.646,6.879l-12.375-1.046
		c0,0-3.572,0.625-4.553,3.557c-0.939,2.805-1.393,10.561-1.393,10.561s0.855,9.816,2.484,11.377
		c6.215,5.963,18.398,9.424,28.818,5.481c43.266-35.252,27.223-74.091,27.844-82.127c-1.084-7.493-8-16.163-14.207-24.831
		C509.104,76.105,501.645,68.7,488.832,63.871"/>
	<path fill="#FFFFFF" d="M373.523,95.358c-14.938-35.373-52.762-29.822-65.834-30.23c-9.111-0.287-28.844,2.399-41.455,9.555
		c-13.107,7.438-25.033,29.257-29.451,44.945c-4.938,17.515,4.352,49.091,5.971,54.763c1.617,5.682,13.432,22.562,20.381,20.821
		c2.238-2.229,1.879-10.074,1.879-10.074s-4.699-8.404-5.207-10.215c-1.236-4.358-7.539-13.697-7.539-13.697
		s-1.08-2.069,1.162-3.304c0.943-0.553,2.484,0.877,2.805,1.507c0.914,1.791,3.572,4.962,3.572,4.962s2.127,0.903,1.695-0.574
		c-0.457-1.491-5.451-15.343-5.451-15.343s-0.676-3.729,2.027-3.628c1.076-0.205,2.094,0.495,2.322,1.671
		c0.172,0.892,2.85,6.502,3.873,9.252c0.465,1.199,1.291,4.298,1.672,5.448c0.379,1.153,1.041-0.199,1.041-0.199
		s-1.352-10.453-1.549-11.504c-0.201-1.037-0.916-7.451-0.916-7.451s0.721-2.653,2.232-3.003c1.594-0.352,1.838,1.2,2.006,2.078
		c0.125,0.668,1.246,6.908,1.711,8.436c0.57,1.898,1.775,9.962,1.775,9.962s0.92,0.466,0.797-0.158
		c0.555-2.569,0.684-7.379,0.684-7.379l-0.367-7.859c0,0,0.75-2.628,1.889-2.838c1.193-0.223,2.227,0.679,2.43,2.038
		c0.121,0.893,0.729,18.27,0.729,20.252c0,1.98,2.119,0.756,2.119,0.756l2.043-5.961c0,0,0.178-3.869,4.328-2.553
		c0.619,0.33,1.418,0.928,0.637,1.98c-1.139,1.561-2.422,11.229-2.422,11.229s-2.801,7.384-4.002,9.69
		c-0.107,3.264,0.631,12.762,7.09,16.479l12.646,1.74c3.727-0.256,5.738-11.104,7.932-19.188c3.389-9.167,3.529-13.81,3.037-20.256
		c-0.287-3.643-5.363-12.092-5.363-12.092l-6.156-7.98l-5.646-7.954c0,0,0.598-3.996,1.043-5.028c1.037-2.411,6.883,0,6.883,0
		s5.504,6.96,7.762,8.617c4.561,3.342,6.244-0.028,7.801-3.154c0.977-5.844-0.021-32.1-0.021-32.1s1.727-5.175,3.645-4.766
		c1.855,0.386,5.486,1.528,5.059,4.486c-0.295,2.025,0.217,11.096,0.217,11.096s1.121,8.499,0.693,12.989
		c-0.225,0.991,2.189,0.656,2.189,0.656s2.297-13.093,3.311-16.153c0.814-2.488,3.111-15.722,3.111-15.722s0.844-2.513,5.246-1.368
		c2.428,0.631,2.227,6.172,2.227,6.172s-2.006,9.352-2.383,11.039c-0.375,1.682-2.547,15.266-2.951,16.706
		c-0.398,1.435,1.68,0.374,1.68,0.374s2.098-4.918,2.895-6.879c1.795-4.405,6.672-19.452,6.672-19.452s2.439-1.432,4.166-1.04
		c1.762,0.395,3.463,3.049,3.463,3.049s-9.393,26.758-10.168,29.162c-0.789,2.398,2.074,1.812,2.074,1.812l8.607-13.613
		c0,0,1.811-1.028,2.84-0.254c1.035,0.771,3.078,3.567,2.328,4.903c-2.797,5.46-8.525,15.474-8.525,15.474s-3.248,5.888-3.676,9.92
		c-2.141,5.698-4.379,11.578-7.266,13.846c-2.559,2.016-1.92,1.641-3.096,5.123c-2.982,8.853-4.779,23.221-4.898,29.59
		c4.725,2.223,11.838,1.353,14.229-0.188c14.523-9.338,21.074-23.684,25.305-37.451c0.955-3.072,4.258-42.37,4.258-42.37
		L373.523,95.358z"/>
	<path fill="#FFFFFF" d="M225.074,109.864c-1.521-19.618-19.217-30.674-23.564-34.29c-5.719-3.921-22.594-10.351-38.221-12.927
		c-15.633-2.573-37.443,1.806-47.367,6.705c-21.436,10.58-28.65,30.031-29.852,37.146c-8.113,39.501,9.139,80.353,33.143,88.119
		c7.008,3.291,18.066,4.781,30.133,4.707c0.146,0,0.287-0.096,0.199-0.27c-2.002-4.036-4.875-9.159-5.736-11.306
		c-1.1-2.739-18.166-27.883-27.42-37.503c-6.744-10.045-8.676-30.266-0.047-40.707c2.676-3.259,9.139-7.502,12.977-8.7
		c11.322-3.539,21.258,6.562,27.314,12.88c3.906-12.725,20.072-15.257,26.35-12.112c1.488,0.751,12.098,11.612,12.779,12.743
		c6.859,11.306-3.859,27.311-8.816,39.273c-4.082,6.764-12.607,14.707-17.217,21.299c-2.107,3.018-8.832,18.088-11.258,23.591
		c-0.121,0.271-0.158,0.48,0.281,0.45c20.035-1.401,40.67-6.757,49.068-15.15c8.621-8.604,15.332-19.383,17.178-33.213
		C226.117,142.147,225.713,118.103,225.074,109.864"/>
	<path fill="#FFFFFF" d="M83.012,279.966c-3.293,5.847-7.027,9.993-11.195,12.437c-4.174,2.451-9.26,3.673-15.262,3.673
		c-4.828,0-9.256-0.841-13.277-2.523c-4.029-1.676-7.488-4.143-10.377-7.397c-2.889-3.243-5.125-7.206-6.693-11.888
		c-1.578-4.675-2.359-10.008-2.359-15.998c0-6.58,0.889-12.257,2.688-17.042c1.791-4.784,4.168-8.767,7.133-11.947
		c2.967-3.173,6.406-5.532,10.32-7.066c3.916-1.533,7.955-2.304,12.129-2.304c6.803,0,12.297,1.481,16.463,4.438
		c4.172,2.961,7.504,7.178,9.992,12.659l-11.965,6.576c-1.244-3.214-2.965-5.807-5.162-7.782c-2.193-1.971-5.193-2.959-9-2.959
		c-2.268,0-4.465,0.512-6.584,1.533c-2.127,1.027-3.99,2.599-5.604,4.715c-1.607,2.122-2.904,4.767-3.893,7.947
		c-0.988,3.178-1.482,6.924-1.482,11.232c0,3.796,0.453,7.231,1.375,10.303c0.91,3.066,2.193,5.661,3.834,7.778
		c1.652,2.122,3.59,3.764,5.82,4.932c2.238,1.168,4.631,1.754,7.195,1.754c3.293,0,6.09-0.747,8.393-2.248
		c2.309-1.496,4.299-4.109,5.988-7.834L83.012,279.966z"/>
	<polygon fill="#FFFFFF" points="94.096,294.541 94.096,221.443 108.918,221.443 108.918,250.376 138.002,250.376 138.002,221.443 
		152.828,221.443 152.828,294.541 138.002,294.541 138.002,263.639 108.918,263.639 108.918,294.541 	"/>
	<polygon fill="#FFFFFF" points="169.725,294.541 169.725,221.443 184.549,221.443 184.549,290.6 184.549,294.541 	"/>
	<polygon fill="#FFFFFF" points="201.449,294.541 201.449,221.443 216.271,221.443 216.271,281.281 253.152,281.281 
		253.152,294.541 	"/>
	<path fill="#FFFFFF" d="M262.15,294.545v-73.099h21.738c2.779,0,5.85,0.199,9.215,0.605c3.365,0.398,6.588,1.296,9.662,2.684
		c3.217,1.46,5.996,3.324,8.342,5.583c2.344,2.271,4.283,4.845,5.82,7.728c1.537,2.89,2.688,5.998,3.457,9.318
		c0.768,3.325,1.15,6.742,1.15,10.248c0,3.432-0.383,6.812-1.15,10.137c-0.77,3.321-1.938,6.448-3.512,9.367
		c-1.57,2.924-3.553,5.57-5.928,7.947c-2.381,2.369-5.143,4.294-8.291,5.753c-5.264,2.481-11.342,3.729-18.221,3.729H262.15z
		 M276.975,281.393h5.922c5.416,0,9.842-0.915,13.285-2.74c3.51-1.828,6.107-4.623,7.793-8.386c1.682-3.765,2.525-7.76,2.525-11.998
		c0-4.162-0.752-8.092-2.254-11.781c-1.5-3.686-3.895-6.558-7.188-8.605c-1.684-1.098-3.77-1.916-6.256-2.461
		c-2.49-0.554-5.012-0.821-7.574-0.821h-6.254V281.393z"/>
	<path fill="#FFFFFF" d="M334.928,294.541v-73.095h29.311c3.148,0,6.295,0.346,9.439,1.039c3.148,0.696,5.965,1.88,8.457,3.565
		c2.482,1.681,4.514,3.943,6.09,6.794c1.57,2.846,2.359,6.391,2.359,10.631c0,5.256-1.354,9.901-4.062,13.915
		c-2.711,4.021-7.064,6.901-13.059,8.654l18.875,28.496h-16.791l-18.119-27.396h-8.01v27.396H334.928z M349.418,254.541h11.527
		c5.559,0,9.455-0.858,11.689-2.573c2.234-1.713,3.35-4.219,3.35-7.509c0-3.505-1.115-6.101-3.35-7.776
		c-2.234-1.683-6.131-2.523-11.689-2.523h-11.527V254.541z"/>
	<polygon fill="#FFFFFF" points="403.314,294.541 403.314,221.443 453.588,221.443 453.588,234.706 418.137,234.706 
		418.137,251.364 447.443,251.364 447.443,264.623 418.137,264.623 418.137,281.281 456.113,281.281 456.113,294.541 	"/>
	<polygon fill="#FFFFFF" points="467.641,294.541 467.641,221.443 482.791,221.443 512.426,267.034 512.426,221.443 
		527.025,221.443 527.025,294.541 514.076,294.541 482.24,246.211 482.24,294.541 	"/>
	<path fill="#FFFFFF" d="M488.832,63.871c-20.439-6.443-45.174-2.894-63.51,3.83c-30.887,20.089-40.324,52.765-39.916,73.415
		c0.156,7.504,7.684,32.906,23.984,42.336c13.189,8.876,30.775,10.126,30.775,10.126s7.494-3.741,9.088-5.823
		c1.594-2.083,5.701-12.051,5.701-12.051s-0.574-7.389-4.658-10.352c-1.391-1.021-13.574,3.469-18.742,0.025
		c-4.824-1.031-7.1-4.213-5.857-6.535c-4.357,0.258-7.221-1.36-9.73-2.345c-4.303-1.694-5.338-8.917-5.338-8.917
		s2.791-2.768,4.205-5.014c-2.709-2.461-2.949-5.373-4.312-8.139c0.711-6.539,5.877-16.854,12.461-14.66
		c-3.139-5.637,0.305-11.482,0.305-11.482s10.514-11.221,14.457-7.033c-0.768-2.985,1.92-7.627,1.92-7.627s7.539-4.918,12.932-5.568
		c3.938,0.534,7.061,3.168,7.207,9.226c3.064-4.054,16.541-5.162,16.541-5.162s7.574,3.783,6.543,12.041
		c3.1-5.503,8.768-2.618,13.779-0.69c1.809,1.994,7.328,5.481,1.898,9.877c2.742,0.732,7.041,2.347,8.434,4.912
		c1.869,3.436,0.346,7.91,0.346,7.91s-0.688,5.848-6.455,6.552c2.795,0.663,6.01,2.806,7.355,3.805
		c0.82,1.766,3.561,4.515,3.926,7.526c-0.693,4.129-3.105,14.104-12.748,12.382c-1.035,3.787-9.646,6.879-9.646,6.879l-12.375-1.046
		c0,0-3.572,0.625-4.553,3.557c-0.939,2.805-1.393,10.561-1.393,10.561s0.855,9.816,2.484,11.377
		c6.215,5.963,18.398,9.424,28.818,5.481c43.266-35.252,27.223-74.091,27.844-82.127c-1.084-7.493-8-16.163-14.207-24.831
		C509.104,76.105,501.645,68.7,488.832,63.871"/>
	<path fill="#FFFFFF" d="M373.523,95.358c-14.938-35.373-52.762-29.822-65.834-30.23c-9.111-0.287-28.844,2.399-41.455,9.555
		c-13.107,7.438-25.033,29.257-29.451,44.945c-4.938,17.515,4.352,49.091,5.971,54.763c1.617,5.682,13.432,22.562,20.381,20.821
		c2.238-2.229,1.879-10.074,1.879-10.074s-4.699-8.404-5.207-10.215c-1.236-4.358-7.539-13.697-7.539-13.697
		s-1.08-2.069,1.162-3.304c0.943-0.553,2.484,0.877,2.805,1.507c0.914,1.791,3.572,4.962,3.572,4.962s2.127,0.903,1.695-0.574
		c-0.457-1.491-5.451-15.343-5.451-15.343s-0.676-3.729,2.027-3.628c1.076-0.205,2.094,0.495,2.322,1.671
		c0.172,0.892,2.85,6.502,3.873,9.252c0.465,1.199,1.291,4.298,1.672,5.448c0.379,1.153,1.041-0.199,1.041-0.199
		s-1.352-10.453-1.549-11.504c-0.201-1.037-0.916-7.451-0.916-7.451s0.721-2.653,2.232-3.003c1.594-0.352,1.838,1.2,2.006,2.078
		c0.125,0.668,1.246,6.908,1.711,8.436c0.57,1.898,1.775,9.962,1.775,9.962s0.92,0.466,0.797-0.158
		c0.555-2.569,0.684-7.379,0.684-7.379l-0.367-7.859c0,0,0.75-2.628,1.889-2.838c1.193-0.223,2.227,0.679,2.43,2.038
		c0.121,0.893,0.729,18.27,0.729,20.252c0,1.98,2.119,0.756,2.119,0.756l2.043-5.961c0,0,0.178-3.869,4.328-2.553
		c0.619,0.33,1.418,0.928,0.637,1.98c-1.139,1.561-2.422,11.229-2.422,11.229s-2.801,7.384-4.002,9.69
		c-0.107,3.264,0.631,12.762,7.09,16.479l12.646,1.74c3.727-0.256,5.738-11.104,7.932-19.188c3.389-9.167,3.529-13.81,3.037-20.256
		c-0.287-3.643-5.363-12.092-5.363-12.092l-6.156-7.98l-5.646-7.954c0,0,0.598-3.996,1.043-5.028c1.037-2.411,6.883,0,6.883,0
		s5.504,6.96,7.762,8.617c4.561,3.342,6.244-0.028,7.801-3.154c0.977-5.844-0.021-32.1-0.021-32.1s1.727-5.175,3.645-4.766
		c1.855,0.386,5.486,1.528,5.059,4.486c-0.295,2.025,0.217,11.096,0.217,11.096s1.121,8.499,0.693,12.989
		c-0.225,0.991,2.189,0.656,2.189,0.656s2.297-13.093,3.311-16.153c0.814-2.488,3.111-15.722,3.111-15.722s0.844-2.513,5.246-1.368
		c2.428,0.631,2.227,6.172,2.227,6.172s-2.006,9.352-2.383,11.039c-0.375,1.682-2.547,15.266-2.951,16.706
		c-0.398,1.435,1.68,0.374,1.68,0.374s2.098-4.918,2.895-6.879c1.795-4.405,6.672-19.452,6.672-19.452s2.439-1.432,4.166-1.04
		c1.762,0.395,3.463,3.049,3.463,3.049s-9.393,26.758-10.168,29.162c-0.789,2.398,2.074,1.812,2.074,1.812l8.607-13.613
		c0,0,1.811-1.028,2.84-0.254c1.035,0.771,3.078,3.567,2.328,4.903c-2.797,5.46-8.525,15.474-8.525,15.474s-3.248,5.888-3.676,9.92
		c-2.141,5.698-4.379,11.578-7.266,13.846c-2.559,2.016-1.92,1.641-3.096,5.123c-2.982,8.853-4.779,23.221-4.898,29.59
		c4.725,2.223,11.838,1.353,14.229-0.188c14.523-9.338,21.074-23.684,25.305-37.451c0.955-3.072,4.258-42.37,4.258-42.37
		L373.523,95.358z"/>
	<path fill="#FFFFFF" d="M225.074,109.864c-1.521-19.618-19.217-30.674-23.564-34.29c-5.719-3.921-22.594-10.351-38.221-12.927
		c-15.633-2.573-37.443,1.806-47.367,6.705c-21.436,10.58-28.65,30.031-29.852,37.146c-8.113,39.501,9.139,80.353,33.143,88.119
		c7.008,3.291,18.066,4.781,30.133,4.707c0.146,0,0.287-0.096,0.199-0.27c-2.002-4.036-4.875-9.159-5.736-11.306
		c-1.1-2.739-18.166-27.883-27.42-37.503c-6.744-10.045-8.676-30.266-0.047-40.707c2.676-3.259,9.139-7.502,12.977-8.7
		c11.322-3.539,21.258,6.562,27.314,12.88c3.906-12.725,20.072-15.257,26.35-12.112c1.488,0.751,12.098,11.612,12.779,12.743
		c6.859,11.306-3.859,27.311-8.816,39.273c-4.082,6.764-12.607,14.707-17.217,21.299c-2.107,3.018-8.832,18.088-11.258,23.591
		c-0.121,0.271-0.158,0.48,0.281,0.45c20.035-1.401,40.67-6.757,49.068-15.15c8.621-8.604,15.332-19.383,17.178-33.213
		C226.117,142.147,225.713,118.103,225.074,109.864"/>
	<path fill="#FFFFFF" d="M83.012,279.966c-3.293,5.847-7.027,9.993-11.195,12.437c-4.174,2.451-9.26,3.673-15.262,3.673
		c-4.828,0-9.256-0.841-13.277-2.523c-4.029-1.676-7.488-4.143-10.377-7.397c-2.889-3.243-5.125-7.206-6.693-11.888
		c-1.578-4.675-2.359-10.008-2.359-15.998c0-6.58,0.889-12.257,2.688-17.042c1.791-4.784,4.168-8.767,7.133-11.947
		c2.967-3.173,6.406-5.532,10.32-7.066c3.916-1.533,7.955-2.304,12.129-2.304c6.803,0,12.297,1.481,16.463,4.438
		c4.172,2.961,7.504,7.178,9.992,12.659l-11.965,6.576c-1.244-3.214-2.965-5.807-5.162-7.782c-2.193-1.971-5.193-2.959-9-2.959
		c-2.268,0-4.465,0.512-6.584,1.533c-2.127,1.027-3.99,2.599-5.604,4.715c-1.607,2.122-2.904,4.767-3.893,7.947
		c-0.988,3.178-1.482,6.924-1.482,11.232c0,3.796,0.453,7.231,1.375,10.303c0.91,3.066,2.193,5.661,3.834,7.778
		c1.652,2.122,3.59,3.764,5.82,4.932c2.238,1.168,4.631,1.754,7.195,1.754c3.293,0,6.09-0.747,8.393-2.248
		c2.309-1.496,4.299-4.109,5.988-7.834L83.012,279.966z"/>
	<polygon fill="#FFFFFF" points="94.096,294.541 94.096,221.443 108.918,221.443 108.918,250.376 138.002,250.376 138.002,221.443 
		152.828,221.443 152.828,294.541 138.002,294.541 138.002,263.639 108.918,263.639 108.918,294.541 	"/>
	<polygon fill="#FFFFFF" points="169.725,294.541 169.725,221.443 184.549,221.443 184.549,290.6 184.549,294.541 	"/>
	<polygon fill="#FFFFFF" points="201.449,294.541 201.449,221.443 216.271,221.443 216.271,281.281 253.152,281.281 
		253.152,294.541 	"/>
	<path fill="#FFFFFF" d="M262.15,294.545v-73.099h21.738c2.779,0,5.85,0.199,9.215,0.605c3.365,0.398,6.588,1.296,9.662,2.684
		c3.217,1.46,5.996,3.324,8.342,5.583c2.344,2.271,4.283,4.845,5.82,7.728c1.537,2.89,2.688,5.998,3.457,9.318
		c0.768,3.325,1.15,6.742,1.15,10.248c0,3.432-0.383,6.812-1.15,10.137c-0.77,3.321-1.938,6.448-3.512,9.367
		c-1.57,2.924-3.553,5.57-5.928,7.947c-2.381,2.369-5.143,4.294-8.291,5.753c-5.264,2.481-11.342,3.729-18.221,3.729H262.15z
		 M276.975,281.393h5.922c5.416,0,9.842-0.915,13.285-2.74c3.51-1.828,6.107-4.623,7.793-8.386c1.682-3.765,2.525-7.76,2.525-11.998
		c0-4.162-0.752-8.092-2.254-11.781c-1.5-3.686-3.895-6.558-7.188-8.605c-1.684-1.098-3.77-1.916-6.256-2.461
		c-2.49-0.554-5.012-0.821-7.574-0.821h-6.254V281.393z"/>
	<path fill="#FFFFFF" d="M334.928,294.541v-73.095h29.311c3.148,0,6.295,0.346,9.439,1.039c3.148,0.696,5.965,1.88,8.457,3.565
		c2.482,1.681,4.514,3.943,6.09,6.794c1.57,2.846,2.359,6.391,2.359,10.631c0,5.256-1.354,9.901-4.062,13.915
		c-2.711,4.021-7.064,6.901-13.059,8.654l18.875,28.496h-16.791l-18.119-27.396h-8.01v27.396H334.928z M349.418,254.541h11.527
		c5.559,0,9.455-0.858,11.689-2.573c2.234-1.713,3.35-4.219,3.35-7.509c0-3.505-1.115-6.101-3.35-7.776
		c-2.234-1.683-6.131-2.523-11.689-2.523h-11.527V254.541z"/>
	<polygon fill="#FFFFFF" points="403.314,294.541 403.314,221.443 453.588,221.443 453.588,234.706 418.137,234.706 
		418.137,251.364 447.443,251.364 447.443,264.623 418.137,264.623 418.137,281.281 456.113,281.281 456.113,294.541 	"/>
	<polygon fill="#FFFFFF" points="467.641,294.541 467.641,221.443 482.791,221.443 512.426,267.034 512.426,221.443 
		527.025,221.443 527.025,294.541 514.076,294.541 482.24,246.211 482.24,294.541 	"/>
</g>
</svg>
